<?xml version="1.0" standalone="no"?>
<!DOCTYPE svg PUBLIC "-//W3C//DTD SVG 20010904//EN"
 "http://www.w3.org/TR/2001/REC-SVG-20010904/DTD/svg10.dtd">
<svg version="1.0" xmlns="http://www.w3.org/2000/svg"
 width="144.000000pt" height="144.000000pt" viewBox="0 0 144.000000 144.000000"
 preserveAspectRatio="xMidYMid meet">

<g transform="translate(0.000000,144.000000) scale(0.100000,-0.100000)"
fill="#000000" stroke="none">
<path d="M833 1338 c-59 -11 -59 -11 -44 -101 6 -39 5 -49 -8 -57 -10 -6 -11
-10 -3 -10 9 0 11 -29 7 -127 -2 -71 -8 -157 -12 -193 l-7 -65 -22 165 c-29
212 -29 208 -1 213 12 3 8 4 -12 4 -40 -2 -52 -24 -40 -77 7 -31 39 -334 39
-365 0 -5 -5 -3 -11 5 -7 11 -8 4 -3 -25 8 -47 -2 -42 -22 12 l-15 38 7 -35
c4 -19 7 -54 6 -77 -1 -23 7 -142 19 -265 11 -123 21 -229 21 -235 2 -20 78
-17 78 3 0 14 2 13 17 -2 14 -13 28 -15 74 -10 37 3 61 2 65 -5 4 -7 25 -8 58
-4 65 9 88 21 82 43 -10 32 -77 465 -74 479 2 12 113 -397 133 -491 6 -26 9
-28 43 -23 76 10 212 58 212 74 0 36 -125 473 -130 457 -4 -10 -21 40 -43 122
-20 76 -34 140 -32 142 2 3 9 -17 16 -42 6 -26 13 -45 15 -43 9 9 -31 150 -44
154 -7 3 -58 -7 -114 -21 -55 -15 -103 -25 -106 -22 -3 4 -19 93 -36 199 -24
147 -35 192 -46 193 -8 1 -39 -3 -67 -8z m85 -98 c35 -194 164 -1032 160
-1036 -5 -4 -102 -24 -105 -21 0 1 -17 106 -37 232 -20 127 -58 371 -86 544
-28 172 -49 315 -47 318 3 3 56 15 98 22 4 1 12 -26 17 -59z m262 -264 c0 -3
18 -67 39 -143 32 -114 89 -333 105 -405 3 -12 -2 -15 -15 -13 -11 2 -23 6
-28 9 -5 4 -11 0 -14 -6 -3 -7 -10 0 -17 17 -19 44 -21 65 -7 65 6 0 4 5 -5
11 -10 5 -18 19 -18 29 0 14 -7 20 -22 20 -14 0 -18 -3 -12 -8 12 -7 34 -75
34 -102 0 -13 -1 -13 -10 0 -5 8 -10 11 -10 5 0 -5 -5 -3 -10 5 -6 10 -10 11
-10 3 0 -7 -11 -13 -24 -13 -27 0 -26 -4 -90 235 -46 173 -50 195 -37 195 6 0
11 -7 11 -15 0 -9 6 -12 15 -9 8 4 15 1 15 -5 0 -7 7 -8 23 -1 12 5 34 11 49
14 34 8 32 19 -6 58 l-30 30 30 13 c32 15 44 17 44 11z m-111 -87 c-11 -21
-12 -22 -25 -5 -7 10 -17 15 -23 11 -7 -3 -11 3 -11 15 0 16 5 20 15 16 8 -3
15 -1 15 4 0 5 8 10 18 12 21 4 27 -23 11 -53z m36 31 c3 -5 1 -10 -4 -10 -6
0 -11 5 -11 10 0 6 2 10 4 10 3 0 8 -4 11 -10z m15 -35 c-12 -15 -30 -12 -30
6 0 5 10 9 21 9 18 0 19 -2 9 -15z m-343 -157 c-3 -8 -6 -5 -6 6 -1 11 2 17 5
13 3 -3 4 -12 1 -19z m532 -138 c0 -9 -4 -8 -9 5 -5 11 -9 27 -9 35 0 9 4 8 9
-5 5 -11 9 -27 9 -35z m-512 -12 c-3 -8 -6 -5 -6 6 -1 11 2 17 5 13 3 -3 4
-12 1 -19z m10 -80 c-3 -8 -6 -5 -6 6 -1 11 2 17 5 13 3 -3 4 -12 1 -19z m10
-90 c-3 -7 -5 -2 -5 12 0 14 2 19 5 13 2 -7 2 -19 0 -25z m100 0 c-3 -8 -6 -5
-6 6 -1 11 2 17 5 13 3 -3 4 -12 1 -19z m-110 -50 c-3 -7 -5 -2 -5 12 0 14 2
19 5 13 2 -7 2 -19 0 -25z m120 -25 c-3 -10 -5 -2 -5 17 0 19 2 27 5 18 2 -10
2 -26 0 -35z m-101 -25 c-4 -36 -3 -47 3 -33 8 17 10 16 9 -10 0 -43 -14 -84
-21 -65 -15 39 -17 94 -6 125 7 19 15 35 17 35 2 0 1 -24 -2 -52z m122 -93 c0
-38 -1 -38 -8 -10 -4 17 -8 48 -8 70 0 38 1 38 8 10 4 -16 8 -48 8 -70z m-101
-32 c-3 -10 -5 -4 -5 12 0 17 2 24 5 18 2 -7 2 -21 0 -30z"/>
<path d="M856 1202 c-3 -5 3 -17 14 -27 15 -13 17 -21 9 -31 -7 -8 -7 -19 -1
-30 8 -15 9 -15 15 0 4 10 3 15 -3 11 -6 -3 -10 -2 -10 4 0 5 5 13 10 16 8 5
8 11 1 19 -6 7 -9 15 -6 18 3 3 -1 11 -9 17 -8 7 -17 8 -20 3z"/>
<path d="M999 346 c12 -12 18 -26 14 -31 -5 -4 -2 -5 5 -1 9 5 10 12 3 19 -5
7 -9 16 -8 21 1 5 -6 10 -17 12 -17 2 -16 1 3 -20z"/>
<path d="M1000 295 c0 -5 4 -16 9 -23 6 -11 10 -10 15 4 3 9 4 19 1 22 -3 3
-5 -1 -5 -9 0 -11 -2 -11 -10 1 -5 8 -10 11 -10 5z"/>
<path d="M1091 771 c-26 -20 -21 -41 10 -41 23 0 34 22 22 44 -7 13 -11 12
-32 -3z"/>
<path d="M1147 754 c3 -9 0 -20 -8 -25 -12 -7 -11 -10 2 -21 22 -17 31 -46 17
-54 -7 -4 -5 -10 6 -16 21 -12 21 -35 -1 -41 -10 -3 -4 -5 13 -6 l32 -1 -14
41 c-8 22 -17 57 -20 77 -9 59 12 26 31 -48 9 -36 21 -78 28 -95 l11 -29 6 24
c4 15 -1 37 -11 55 -9 17 -22 48 -29 70 -12 39 -45 85 -61 85 -5 0 -6 -7 -2
-16z"/>
<path d="M97 1264 c-10 -10 -9 -1122 1 -1128 13 -8 486 -20 513 -13 l24 6 3
453 c2 249 0 468 -3 486 l-6 32 -129 0 -129 0 -3 83 -3 82 -131 3 c-71 1 -133
-1 -137 -4z m483 -254 c0 -6 -28 -10 -64 -10 -36 0 -68 5 -71 10 -4 6 20 10
64 10 41 0 71 -4 71 -10z m-370 -70 c5 0 11 10 11 23 l2 22 4 -23 c3 -17 9
-21 24 -17 10 4 19 2 19 -3 0 -6 -20 -12 -45 -14 -44 -3 -45 -3 -44 27 0 28 1
28 9 8 5 -13 14 -23 20 -23z m48 -57 c-23 -23 -29 -25 -43 -13 -14 12 -18 11
-27 -1 -8 -12 -9 -12 -5 1 2 8 15 15 28 15 13 0 33 6 44 12 31 19 32 15 3 -14z
m12 -43 c0 -5 -20 -10 -45 -10 -25 0 -45 5 -45 10 0 6 20 10 45 10 25 0 45 -4
45 -10z m-40 -50 c0 5 9 10 20 10 11 0 20 -4 20 -9 0 -5 -7 -8 -16 -7 -9 0
-19 -5 -21 -11 -3 -8 4 -13 16 -13 12 0 21 -4 21 -10 0 -5 -20 -10 -45 -10
-25 0 -45 5 -45 10 0 6 9 10 20 10 11 0 20 5 20 11 0 6 -9 9 -20 6 -11 -3 -20
-2 -20 2 0 16 13 20 31 10 13 -6 19 -6 19 1z m35 -95 c-23 -8 -85 -10 -85 -3
0 4 21 8 48 7 26 0 43 -2 37 -4z m246 -13 c-11 -4 -11 -6 0 -13 12 -7 11 -9
-1 -9 -12 0 -12 -2 -2 -9 11 -7 11 -9 0 -13 -10 -4 -14 3 -14 27 0 25 4 31 15
27 12 -4 12 -7 2 -10z m-241 -64 c0 -5 -20 -8 -45 -8 -25 0 -45 3 -45 8 0 4
20 7 45 7 25 0 45 -3 45 -7z m245 -16 c-3 -3 -11 0 -18 7 -9 10 -8 11 6 5 10
-3 15 -9 12 -12z m-20 -12 c3 -6 -1 -7 -9 -4 -18 7 -21 14 -7 14 6 0 13 -4 16
-10z m-225 -18 c0 -4 -20 -14 -45 -23 -54 -20 -61 -8 -7 14 44 18 52 19 52 9z
m245 -74 c1 -14 -4 -25 -11 -25 -10 0 -11 4 -3 14 9 10 8 13 -2 14 -11 0 -11
2 -1 6 10 4 9 9 -5 20 -17 14 -17 14 2 5 10 -6 20 -21 20 -34z m-315 -12 c0
-3 -4 -8 -10 -11 -5 -3 -10 -1 -10 4 0 6 5 11 10 11 6 0 10 -2 10 -4z m60 -71
c-13 -16 -55 -21 -64 -6 -3 4 5 6 18 4 13 -3 30 2 37 10 18 19 26 12 9 -8z
m290 -191 c0 -2 -19 -4 -42 -3 -35 1 -38 2 -18 8 23 7 60 4 60 -5z"/>
<path d="M1251 820 c0 -8 4 -24 9 -35 5 -13 9 -14 9 -5 0 8 -4 24 -9 35 -5 13
-9 14 -9 5z"/>
<path d="M1271 744 c0 -11 3 -14 6 -6 3 7 2 16 -1 19 -3 4 -6 -2 -5 -13z"/>
<path d="M1281 704 c0 -11 3 -14 6 -6 3 7 2 16 -1 19 -3 4 -6 -2 -5 -13z"/>
<path d="M706 172 c-2 -4 -1 -14 5 -22 7 -12 9 -10 9 8 0 23 -5 28 -14 14z"/>
</g>
</svg>
